# xmcd
#
# Track frame offsets: 
#        150
#        13950
#        30827
#        55525
#        69472
#        84660
#        102377
#        118960
#        142420
#        168640
#        182385
#        206835
#
# Disc length: 2972 seconds
#
# Revision: 2
# Processed by: cddbd v1.5PL3 Copyright (c) Steve Scherf et al.
# Submitted via: ExactAudioCopy v0.90b4
#
DISCID=ab0b9a0c
DTITLE=The Charlie Daniels Band - Fiddle Fire (25 Years Of The Charlie
DTITLE=Daniels Band)
DYEAR=1998
DGENRE=Country
TTITLE0=Texas
TTITLE1=The Devil Went Down To Georgia
TTITLE2=High Lonesome
TTITLE3=Fais Do Do
TTITLE4=Boogie Woogie Fiddle Country Blues
TTITLE5=The South's Gonna Do It
TTITLE6=Drinkin' My Baby Goodbye
TTITLE7=Fiddle Fire
TTITLE8=The Fiddle Player's Got The Blues
TTITLE9=Layla
TTITLE10=Orange Blossom Special
TTITLE11=Talk To Me Fiddle
EXTD=YEAR: 1998 ID3G:   2
EXTT0=
EXTT1=
EXTT2=
EXTT3=
EXTT4=
EXTT5=
EXTT6=
EXTT7=
EXTT8=
EXTT9=
EXTT10=
EXTT11=
PLAYORDER=
